<svg xmlns="http://www.w3.org/2000/svg" width="16" height="16" viewBox="0 0 16 16">
  <g id="xamarinAndroidPhone" fill="none" fill-rule="evenodd" stroke="none" stroke-width="1">
    <path id="Fill-2" fill="#9AA7B0" d="M12,1 L9,1 C7.896,1 7,1.896 7,3 L7,8.989 L8,7.686 L8,3.5 L13,3.5 L13,10.5 L10.018,10.5 L9.675,10.947 C10.191,11.548 10.549,12.251 10.766,13 L12,13 C13.104,13 14,12.104 14,11 L14,3 C14,1.896 13.104,1 12,1"/>
    <path id="Fill-4" fill="#3DDC84" d="M7.4717,13.1426 C7.1167,13.1426 6.8287,12.8546 6.8287,12.4996 C6.8287,12.1446 7.1167,11.8566 7.4717,11.8566 C7.8267,11.8566 8.1147,12.1446 8.1147,12.4996 C8.1147,12.8546 7.8267,13.1426 7.4717,13.1426 M3.5287,13.1426 C3.1737,13.1426 2.8857,12.8546 2.8857,12.4996 C2.8857,12.1446 3.1737,11.8566 3.5287,11.8566 C3.8837,11.8566 4.1717,12.1446 4.1717,12.4996 C4.1717,12.8546 3.8837,13.1426 3.5287,13.1426 M8.3437,11.0386 L9.8647,9.0576 C10.0857,8.7706 10.0317,8.3576 9.7427,8.1366 C9.4557,7.9136 9.0417,7.9696 8.8217,8.2576 L7.2207,10.3436 C6.6897,10.1236 6.1097,9.9996 5.4997,9.9996 C4.8907,9.9996 4.3107,10.1236 3.7807,10.3436 L2.1797,8.2576 C1.9587,7.9696 1.5447,7.9146 1.2577,8.1366 C0.9697,8.3576 0.9147,8.7706 1.1367,9.0576 L2.6567,11.0386 C1.6537,11.8646 0.9997,13.0996 0.9997,14.4996 L0.9997,14.9996 L9.9997,14.9996 L9.9997,14.4996 C9.9997,13.0996 9.3467,11.8646 8.3437,11.0386"/>
  </g>
</svg>
