<?xml version="1.0" encoding="utf-8"?>
<!-- Generator: Adobe Illustrator 26.0.3, SVG Export Plug-In . SVG Version: 6.00 Build 0)  -->
<svg version="1.1" id="Layer_1" xmlns="http://www.w3.org/2000/svg" xmlns:xlink="http://www.w3.org/1999/xlink" x="0px" y="0px"
	 viewBox="0 0 500 500" style="enable-background:new 0 0 500 500;" xml:space="preserve">
<style type="text/css">
	.st0{fill:#FE4858;}
</style>
<g>
	<path class="st0" d="M361.69,36.76c-42.43-0.37-84.86-0.07-127.29-0.07c-43.08,0-86.16-0.26-129.24,0.07
		c-52.57,0.4-92.49,33.13-101.32,84c-6.42,36.93,4.27,70.17,27.44,98.94c51.99,64.54,104.42,128.73,157.07,192.73
		c20.35,24.74,46.62,40.67,78.03,47.78c49.05,11.11,96.86-7.04,118.61-47.01c35.24-64.77,69.39-130.13,103.88-195.31
		c6.13-11.58,9.26-24.14,9.96-37.22C502.87,105.24,438.41,37.42,361.69,36.76z M461.29,247.67c-19.21,35.56-65.95,39.81-92.06,8.8
		c-0.6-0.71-1.39-1.26-3.4-3.04c-5.05,23.2-10.05,44.88-14.34,66.7c-1.23,6.24-3.3,8.75-9.94,8.57
		c-16.51-0.44-33.04-0.38-49.56-0.03c-6.39,0.14-7.71-1.81-6.35-7.91c5.09-22.7,9.74-45.5,14.73-69.11
		c-30.78,31.56-69.21,25.2-106.46,23.71c-10.02-0.4-19.77-3.23-29.31-6.43c-3.13-1.05-6.26-2.39-7.22,2.58
		c-0.54,2.81-2.73,3.28-5.1,3.5c-18.07,1.63-36.19,3.55-54.18-0.14C82.73,271.71,75.43,262.64,74.9,247
		c-0.74-22.02,7.13-42.64,10.6-63.97c0.21-1.27,0.66-2.5,0.89-3.78c1.21-6.66,5.23-14.8,2.76-19.56c-2.48-4.79-11.81-1-18.09-1.75
		c-1.53-0.18-3.3,0.31-4.28-1.4c-2.24-3.91,4.32-20.3,8.88-21.22c24.37-4.92,43.28-18.11,58.09-37.68c1.85-2.44,3.83-4.09,7.21-4.03
		c9.35,0.17,18.71,0.06,28.86,0.06c-2.68,12.86-4.93,24.89-7.79,36.78c-1.18,4.91,0.02,6.58,4.85,5.98c0.32-0.04,0.65-0.01,0.97,0
		c5.49,0.15,12.42-1.68,16.08,0.98c4.05,2.96-2.01,9.79-0.26,14.72c37.43-24.86,77.31-22.78,118.17-10.99
		c5.63,1.62,7.55,4.26,6.21,10.5c-5.45,25.43-5.24,25.48-31.25,25.48c-1.94,0-3.91-0.19-5.83,0.03c-6.89,0.82-10.52-0.61-9.98-9.07
		c0.37-5.85-1.32-13.31-9.47-13.47c-7.76-0.15-13.43,4.42-16.01,11.91c-2.42,7.04-0.39,12.73,6.18,16.54
		c5.11,2.97,10.82,4.22,16.45,5.68c5.32,1.38,10.68,2.62,15.93,4.21c16.26,4.94,28.44,13.95,31.79,32.18
		c5.76-27.07,11.77-54.08,17.09-81.23c1.22-6.21,3.68-7.8,9.54-7.58c11,0.41,22.08,0.76,33.02-0.09
		c8.64-0.67,12.77,1.93,14.61,10.62c2.33,10.97,2.84,10.72,11.39,3.83c15.92-12.82,34.33-17.88,54.46-15.91
		c18.27,1.79,29.67,13.93,31.07,33.98C479,196.35,474.55,223.12,461.29,247.67z"/>
	<path class="st0" d="M178.53,157.94c-1.81,5.43-3.8,10.17-4.96,15.1c-5.03,21.41,4.85,38.62,25.77,45.39
		c9.21,2.98,18.65,5.39,27.54,9.14c10.69,4.51,13.59,10.78,10.15,18.58c-3.69,8.38-13.87,12.19-23.02,8.53
		c-6.54-2.62-7.84-8.46-7.63-14.39c0.21-5.82-2.21-7.06-7.39-6.76c-6.45,0.38-12.97,0.53-19.39-0.01
		c-10.9-0.91-19.75-0.23-19.49,14.34c0.1,6.04-5.2,4.12-8.89,3.92c-5.85-0.32-11.55-1.35-11.53-8.75c0.02-5.44,0.93-10.95,2.03-16.3
		c4.05-19.61,8.87-39.08,12.29-58.79c1.42-8.17,4.38-11.27,12.47-10.1C170.25,158.4,174.18,157.94,178.53,157.94z"/>
	<path class="st0" d="M410.97,182.46c-1.92,18.04-3.76,37.4-13.98,54.52c-6.52,10.92-16.81,11.68-24.6,2.69
		c-2.75-3.18-2.72-6.23-1.95-9.82c3.43-16.07,6.66-32.18,10.26-48.21c2.08-9.25,9.18-13.9,17.59-15.96
		C406.88,163.56,411.05,169.1,410.97,182.46z"/>
</g>
</svg>
