<svg id="svg" version="1.1" xmlns="http://www.w3.org/2000/svg" xmlns:xlink="http://www.w3.org/1999/xlink" width="400" height="400" viewBox="0, 0, 400,400"><g id="svgg"><path id="path0" d="M54.001 1.694 C 50.280 3.536,46.613 8.450,45.288 13.371 C 44.794 15.206,44.593 82.733,44.722 203.287 L 44.922 390.356 47.048 393.144 C 48.218 394.678,51.012 396.847,53.257 397.966 L 57.338 400.000 200.000 400.000 L 342.662 400.000 346.743 397.966 C 348.988 396.847,351.782 394.678,352.952 393.144 L 355.078 390.356 355.279 241.182 C 355.423 134.809,355.235 91.081,354.623 88.778 C 353.670 85.184,276.678 6.854,269.574 2.251 L 266.100 0.000 161.761 0.001 L 57.422 0.001 54.001 1.694 M258.594 55.469 L 258.594 96.875 299.609 96.875 L 340.625 96.875 340.625 182.813 L 340.625 268.750 200.000 268.750 L 59.375 268.750 59.375 142.917 C 59.375 57.672,59.636 16.597,60.184 15.574 C 60.977 14.092,62.911 14.063,159.793 14.063 L 258.594 14.063 258.594 55.469 M301.172 53.906 L 329.289 82.031 300.972 82.031 L 272.656 82.031 272.656 53.906 C 272.656 38.438,272.746 25.781,272.856 25.781 C 272.965 25.781,285.708 38.438,301.172 53.906 M214.303 96.882 C 213.362 97.262,212.062 98.382,211.415 99.372 C 209.516 102.279,168.750 218.552,168.750 221.062 C 168.750 226.982,176.624 230.060,180.777 225.763 C 183.153 223.306,224.236 107.265,224.196 103.125 C 224.144 97.780,219.442 94.813,214.303 96.882 M129.582 139.648 C 106.592 162.741,105.555 164.078,107.379 168.287 C 109.621 173.458,151.694 214.063,154.810 214.063 C 160.458 214.063,164.044 208.311,161.449 203.415 C 160.795 202.181,152.154 193.092,142.246 183.216 L 124.233 165.261 143.366 146.071 C 164.711 124.664,165.682 122.979,159.443 118.189 C 154.804 114.628,153.706 115.417,129.582 139.648 M232.771 119.185 C 228.087 124.171,228.742 125.213,249.823 146.307 L 268.751 165.247 250.780 183.204 C 229.257 204.713,227.927 206.904,233.199 212.177 C 237.923 216.901,238.505 216.505,263.416 191.649 C 278.690 176.408,286.030 168.545,286.353 167.076 C 287.216 163.143,284.573 159.900,263.005 138.423 L 241.678 117.188 238.163 117.188 C 235.402 117.188,234.244 117.617,232.771 119.185 M340.625 333.438 C 340.625 371.771,340.397 384.290,339.687 385.000 C 338.324 386.364,61.676 386.364,60.312 385.000 C 59.603 384.290,59.375 371.771,59.375 333.437 L 59.375 282.813 200.000 282.813 L 340.625 282.813 340.625 333.438 M107.031 303.218 C 107.031 303.698,111.074 311.772,116.016 321.160 C 120.957 330.548,125.000 338.428,125.000 338.671 C 125.000 338.914,121.133 346.473,116.406 355.469 C 111.680 364.464,107.813 372.012,107.813 372.240 C 107.813 372.469,110.923 372.656,114.724 372.656 L 121.635 372.656 127.535 359.669 C 132.404 348.951,133.570 346.937,134.206 348.145 C 134.630 348.951,137.159 354.795,139.826 361.133 L 144.675 372.656 151.634 372.656 C 155.462 372.656,158.594 372.524,158.594 372.362 C 158.594 372.200,155.461 366.121,151.632 358.854 C 147.803 351.587,143.887 344.028,142.929 342.056 L 141.187 338.472 150.281 321.169 C 161.168 300.454,160.942 302.230,152.649 302.509 L 145.922 302.734 139.710 316.016 C 136.293 323.320,133.235 329.562,132.916 329.887 C 132.597 330.212,129.592 324.147,126.238 316.411 L 120.142 302.344 113.586 302.344 C 109.274 302.344,107.031 302.643,107.031 303.218 M174.219 337.468 L 174.219 372.656 180.469 372.656 L 186.719 372.656 186.745 349.805 L 186.772 326.953 194.067 344.922 L 201.363 362.891 207.003 362.891 L 212.644 362.891 219.798 345.064 L 226.953 327.238 227.160 349.947 L 227.367 372.656 233.606 372.656 L 239.844 372.656 239.844 337.468 L 239.844 302.281 233.477 302.507 L 227.111 302.734 217.266 325.584 C 211.852 338.151,207.246 348.433,207.031 348.433 C 206.816 348.432,202.185 338.150,196.739 325.583 L 186.838 302.734 180.528 302.507 L 174.219 302.281 174.219 337.468 M256.250 337.500 L 256.250 372.656 278.125 372.656 L 300.000 372.656 300.000 367.969 L 300.000 363.281 284.375 363.281 L 268.750 363.281 268.750 332.813 L 268.750 302.344 262.500 302.344 L 256.250 302.344 256.250 337.500 " stroke="none" fill="#ffffff" fill-rule="evenodd"></path></g></svg>